<svg width="72" height="77" viewBox="0 0 72 77" fill="none" xmlns="http://www.w3.org/2000/svg">
<path d="M65.4254 12.8235C63.8266 11.1283 61.951 10.2042 60.0013 10.1534L59.9753 10.1534C59.0916 10.1392 58.2245 10.303 57.4192 10.6365L57.3306 10.673C53.5833 12.292 51.1882 17.4128 51.3725 23.4155C51.5032 27.8068 53.0237 31.9604 55.4406 34.5268C57.0386 36.2241 58.917 37.147 60.8736 37.195L60.8948 37.1952C61.7785 37.2091 62.6455 37.0453 63.4508 36.7121C67.2599 35.1409 69.6952 30.0035 69.5186 23.9173C69.3718 19.538 67.8442 15.3908 65.4254 12.8235ZM59.5921 41.4476C56.822 40.9051 54.2031 40.3911 51.8501 38.4983C45.3493 33.2534 41.4244 30.088 35.5557 32.5089C29.6869 34.9297 29.1296 39.9441 28.209 48.2503C27.8733 51.2558 26.3749 53.4699 24.7886 55.8166C22.9691 58.5059 21.0892 61.2844 21.3624 65.1135C21.4293 66.5069 21.7447 67.8918 22.2916 69.1933C24.554 74.678 30.2731 77.5406 35.0379 75.5751C37.4965 74.561 39.7259 72.5434 42.0851 70.4081C44.3533 68.3549 46.6984 66.2325 49.078 65.2509C51.4576 64.2693 54.6101 64.1239 57.6565 63.9848C60.827 63.832 63.8181 63.6961 66.2836 62.6791C71.0414 60.7165 73.072 54.6571 70.8096 49.1724C70.2748 47.8648 69.5174 46.6622 68.5784 45.6297C66.0712 42.7186 62.777 42.0726 59.5921 41.4476ZM18.6614 33.2027C21.2492 34.8006 23.8581 35.1919 26.0078 34.3051C26.3012 34.1841 26.5844 34.0392 26.855 33.8718C31.039 31.2961 31.347 24.1174 27.5515 17.5174C25.9576 14.7418 23.8055 12.4322 21.5015 11.0118C18.9183 9.41743 16.3074 9.02878 14.159 9.91497C13.8656 10.036 13.5824 10.1809 13.3118 10.3483C9.12779 12.924 8.81985 20.1027 12.6153 26.7027C14.2059 29.4742 16.3568 31.7808 18.6614 33.2027ZM42.6882 27.3405C42.9981 27.2685 43.3011 27.1716 43.5946 27.0506C45.7456 26.1632 47.3185 24.047 48.0272 21.0893C48.6576 18.4566 48.5512 15.3068 47.7295 12.2145C45.7691 4.86109 40.4895 -0.0127266 35.7051 1.10752C35.3952 1.17952 35.0922 1.27644 34.7988 1.39748C32.6517 2.28672 31.0741 4.40316 30.3663 7.35513C29.7338 9.98682 29.8359 13.142 30.6651 16.2366C32.6254 23.59 37.905 28.4638 42.6882 27.3405ZM20.8899 53.6973L20.9062 53.6817C22.2571 52.2692 22.9377 50.2925 22.8736 47.9643C22.7757 44.4342 20.9288 40.4205 17.9282 37.2131C13.7747 32.7745 8.42638 30.8461 4.62147 32.4156C3.8152 32.7467 3.08474 33.2418 2.46816 33.8751L2.45192 33.8908C1.10256 35.2954 0.424476 37.2782 0.488589 39.6065C0.586515 43.1365 2.43341 47.1502 5.43402 50.3576C9.58754 54.7962 14.9358 56.7246 18.7408 55.1551C19.5454 54.824 20.2744 54.3295 20.8899 53.6973Z" fill="#F5F5F5"/>
</svg>
