<svg width="98" height="95" viewBox="0 0 98 95" fill="none" xmlns="http://www.w3.org/2000/svg">
<path d="M96.9559 32.9016C95.9508 29.8961 94.1637 27.6843 91.7863 26.5079L91.7543 26.493C90.6716 25.9708 89.5079 25.6778 88.3235 25.6294L88.1932 25.6239C82.6435 25.4817 76.7625 30.434 73.5614 37.9481C71.2145 43.4427 70.7187 49.4378 72.2359 53.9858C73.2388 56.9934 75.03 59.2054 77.4176 60.3822L77.4436 60.3946C78.5263 60.9165 79.69 61.2094 80.8743 61.2582C86.4731 61.4946 92.4132 56.5448 95.6715 48.932C97.9916 43.443 98.475 37.4519 96.9559 32.9016ZM73.4068 64.899C70.2978 62.6472 67.359 60.517 65.5359 56.8368C60.5081 46.6503 57.4717 40.5016 48.8455 40.1375C40.2193 39.7734 36.6675 45.6439 30.7869 55.37C28.6559 58.8879 25.5419 60.7647 22.2435 62.7551C18.4618 65.0352 14.5546 67.3908 12.7046 72.2729C11.9914 74.0309 11.5897 75.9203 11.5213 77.8391C11.181 85.9007 16.6047 92.7005 23.6083 92.9962C27.222 93.1487 31.1261 91.9319 35.2575 90.6439C39.2298 89.4052 43.3364 88.1251 46.8341 88.2728C50.3318 88.4204 54.3058 90.0416 58.1453 91.61C62.1457 93.2323 65.915 94.7729 69.539 94.9259C76.5324 95.2211 82.4996 88.9021 82.8399 80.8404C82.9267 78.9211 82.6787 77.0042 82.1095 75.1935C80.6777 70.1684 76.9809 67.4896 73.4068 64.899ZM27.5975 31.3443C29.8789 34.7946 32.8754 36.7676 36.0351 36.901C36.4665 36.9192 36.8987 36.9021 37.3283 36.85C43.9636 36.0608 48.4439 27.3764 47.5291 17.0625C47.1472 12.7264 45.8101 8.64657 43.7778 5.57749C41.5001 2.13413 38.4995 0.163132 35.3418 0.0298444C34.9105 0.0116521 34.4782 0.0286982 34.0486 0.0808425C27.4133 0.870077 22.933 9.55446 23.8478 19.8684C24.228 24.1976 25.5652 28.273 27.5975 31.3443ZM60.6009 37.8323C61.0245 37.9205 61.4538 37.9739 61.8852 37.9921C65.0469 38.1256 68.197 36.412 70.761 33.1662C73.0428 30.277 74.7106 26.3285 75.4626 22.0426C77.2432 11.8469 73.5106 2.81585 66.9656 1.46578C66.5419 1.37762 66.1126 1.32421 65.6813 1.30599C62.5234 1.17718 59.3674 2.88831 56.8076 6.12748C54.5239 9.01438 52.8478 12.967 52.1036 17.2601C50.3231 27.4557 54.0557 36.4868 60.6009 37.8323ZM18.6422 57.9125L18.6711 57.9025C21.1453 56.9309 23.1144 54.8799 24.3651 51.9696C26.2605 47.5567 26.2735 41.548 24.402 35.8753C21.8107 28.0246 16.311 22.5897 10.7184 22.3536C9.53412 22.3018 8.34975 22.4956 7.22701 22.9251L7.19804 22.9351C4.73033 23.898 2.76088 25.958 1.51016 28.8683C-0.385246 33.2812 -0.398209 39.2899 1.47328 44.9626C4.06457 52.8133 9.56424 58.2482 15.1569 58.4843C16.3391 58.5352 17.5214 58.3413 18.6422 57.9125Z" fill="#F5F5F5"/>
</svg>
