<svg width="150" height="146" viewBox="0 0 150 146" fill="none" xmlns="http://www.w3.org/2000/svg">
<path d="M148.554 50.8695C147.016 46.2702 144.281 42.8854 140.643 41.0852L140.594 41.0625C138.938 40.2632 137.157 39.8149 135.344 39.7408L135.145 39.7324C126.652 39.5148 117.652 47.0934 112.754 58.5922C109.162 67.0007 108.403 76.1751 110.725 83.1349C112.26 87.7375 115.001 91.1225 118.655 92.9235L118.694 92.9423C120.351 93.741 122.132 94.1894 123.945 94.264C132.512 94.6257 141.603 87.0509 146.589 75.4011C150.139 67.0012 150.879 57.8329 148.554 50.8695ZM112.517 99.8356C107.759 96.3895 103.262 93.1297 100.472 87.4978C92.7779 71.9093 88.1313 62.4999 74.9306 61.9427C61.7298 61.3855 56.2943 70.3693 47.2952 85.2532C44.0342 90.6366 39.2687 93.5088 34.2212 96.5548C28.4341 100.044 22.4547 103.649 19.6237 111.12C18.5322 113.81 17.9175 116.702 17.8129 119.638C17.2921 131.975 25.5921 142.381 36.3097 142.833C41.8399 143.066 47.8143 141.204 54.1367 139.233C60.2155 137.338 66.4999 135.379 71.8525 135.605C77.2051 135.831 83.2864 138.312 89.1621 140.712C95.284 143.194 101.052 145.552 106.598 145.786C117.3 146.238 126.432 136.568 126.953 124.231C127.085 121.294 126.706 118.36 125.835 115.589C123.644 107.899 117.986 103.8 112.517 99.8356ZM42.4145 48.4864C45.9058 53.7664 50.4912 56.7858 55.3266 56.9899C55.9867 57.0177 56.6482 56.9916 57.3056 56.9118C67.4597 55.7041 74.316 42.4142 72.916 26.6308C72.3316 19.9952 70.2855 13.7518 67.1753 9.05516C63.6898 3.78575 59.098 0.769511 54.2657 0.565539C53.6056 0.537699 52.9441 0.563785 52.2867 0.643582C42.1326 1.85136 35.2763 15.1412 36.6763 30.9247C37.2581 37.5498 39.3045 43.7863 42.4145 48.4864ZM92.9199 58.4151C93.5682 58.55 94.2251 58.6318 94.8852 58.6597C99.7238 58.8639 104.544 56.2415 108.468 51.2745C111.96 46.8531 114.512 40.8107 115.663 34.2518C118.388 18.6493 112.676 4.829 102.66 2.76297C102.012 2.62806 101.355 2.54632 100.694 2.51844C95.8619 2.32133 91.0322 4.93988 87.1151 9.89682C83.6202 14.3147 81.0552 20.3635 79.9165 26.9331C77.1917 42.5356 82.9037 56.3559 92.9199 58.4151ZM28.71 89.1441L28.7543 89.1287C32.5406 87.6419 35.5539 84.5032 37.4679 80.0495C40.3685 73.2964 40.3883 64.1012 37.5243 55.4202C33.5589 43.4063 25.1427 35.0891 16.5841 34.7279C14.7719 34.6485 12.9594 34.9452 11.2413 35.6024L11.1969 35.6178C7.42058 37.0913 4.4067 40.2437 2.49272 44.6974C-0.407844 51.4505 -0.427683 60.6457 2.43627 69.3267C6.40175 81.3406 14.818 89.6578 23.3765 90.019C25.1857 90.097 26.9948 89.8002 28.71 89.1441Z" fill="#F5F5F5"/>
</svg>
