<svg width="98" height="103" viewBox="0 0 98 103" fill="none" xmlns="http://www.w3.org/2000/svg">
<path d="M89.0192 16.3044C86.8448 13.9989 84.294 12.7422 81.6423 12.673L81.6071 12.673C80.4052 12.6537 79.226 12.8766 78.1308 13.33L78.0102 13.3798C72.914 15.5815 69.6566 22.5458 69.9073 30.7095C70.085 36.6817 72.1529 42.3306 75.4398 45.8209C77.6132 48.1292 80.1677 49.3844 82.8288 49.4497L82.8575 49.45C84.0594 49.4689 85.2385 49.246 86.3338 48.7929C91.5141 46.656 94.8261 39.6692 94.5859 31.392C94.3863 25.4361 92.3088 19.796 89.0192 16.3044ZM81.0858 55.2333C77.3185 54.4954 73.7568 53.7964 70.5568 51.2221C61.7157 44.0891 56.3778 39.7842 48.3963 43.0766C40.4148 46.3689 39.6569 53.1884 38.4048 64.4848C37.9483 68.5724 35.9105 71.5835 33.753 74.7751C31.2786 78.4326 28.7219 82.2113 29.0934 87.4189C29.1844 89.3139 29.6134 91.1974 30.3572 92.9674C33.4341 100.427 41.212 104.32 47.6922 101.647C51.0358 100.267 54.0679 97.5236 57.2763 94.6195C60.3611 91.8271 63.5504 88.9407 66.7867 87.6057C70.023 86.2707 74.3103 86.0731 78.4535 85.8839C82.7654 85.6761 86.8332 85.4913 90.1863 84.1081C96.657 81.4389 99.4186 73.1981 96.3417 65.739C95.6144 63.9606 94.5843 62.3251 93.3072 60.9209C89.8974 56.9618 85.4174 56.0832 81.0858 55.2333ZM25.42 44.0202C28.9396 46.1933 32.4876 46.7254 35.4112 45.5194C35.8103 45.3548 36.1954 45.1578 36.5633 44.9301C42.2537 41.4271 42.6725 31.6641 37.5106 22.6881C35.3429 18.9134 32.4161 15.7723 29.2827 13.8406C25.7695 11.6721 22.2186 11.1436 19.2969 12.3488C18.8978 12.5134 18.5126 12.7104 18.1447 12.9382C12.4544 16.4411 12.0356 26.2042 17.1974 35.1802C19.3606 38.9494 22.2858 42.0864 25.42 44.0202ZM58.0966 36.0476C58.5181 35.9497 58.9301 35.8178 59.3292 35.6532C62.2547 34.4465 64.3937 31.5683 65.3576 27.5459C66.215 23.9655 66.0703 19.6817 64.9527 15.4762C62.2867 5.47551 55.1064 -1.15288 48.5995 0.370653C48.178 0.468577 47.766 0.600388 47.3669 0.76501C44.4469 1.97437 42.3014 4.85273 41.3387 8.86742C40.4785 12.4465 40.6175 16.7376 41.7451 20.9462C44.4112 30.9469 51.5914 37.5753 58.0966 36.0476ZM28.4509 71.8928L28.473 71.8715C30.3103 69.9507 31.2359 67.2623 31.1487 64.0959C31.0156 59.295 28.5038 53.8364 24.4229 49.4743C18.7741 43.4378 11.5004 40.8152 6.32576 42.9497C5.22923 43.4 4.2358 44.0733 3.39726 44.9347L3.37517 44.9559C1.54004 46.8662 0.617847 49.5628 0.70504 52.7293C0.838219 57.5302 3.34999 62.9887 7.43083 67.3509C13.0796 73.3873 20.3533 76.01 25.528 73.8754C26.6223 73.4251 27.6138 72.7526 28.4509 71.8928Z" fill="#F5F5F5"/>
</svg>
