<svg width="143" height="151" viewBox="0 0 143 151" fill="none" xmlns="http://www.w3.org/2000/svg">
<path d="M130.183 24.2998C126.987 20.9111 123.238 19.0638 119.34 18.9621L119.289 18.9621C117.522 18.9337 115.789 19.2613 114.179 19.9279L114.002 20.0009C106.511 23.2373 101.723 33.4739 102.091 45.4735C102.352 54.2519 105.392 62.5552 110.223 67.6854C113.418 71.0784 117.173 72.9233 121.084 73.0193L121.127 73.0197C122.893 73.0475 124.626 72.72 126.236 72.0539C133.851 68.913 138.719 58.6432 138.366 46.4767C138.072 37.7223 135.019 29.432 130.183 24.2998ZM118.522 81.5204C112.985 80.4358 107.75 79.4085 103.046 75.6245C90.0507 65.1399 82.2046 58.8122 70.4728 63.6516C58.741 68.4909 57.627 78.5147 55.7865 95.1191C55.1156 101.127 52.1202 105.553 48.949 110.245C45.3119 115.621 41.5539 121.175 42.0999 128.829C42.2337 131.615 42.8642 134.383 43.9575 136.985C48.4801 147.949 59.9128 153.672 69.4378 149.742C74.3526 147.715 78.8093 143.682 83.5253 139.413C88.0596 135.309 92.7474 131.066 97.5044 129.104C102.261 127.142 108.563 126.851 114.653 126.573C120.991 126.268 126.97 125.996 131.899 123.963C141.41 120.04 145.469 107.926 140.947 96.9625C139.878 94.3486 138.363 91.9446 136.486 89.8805C131.474 84.0611 124.889 82.7698 118.522 81.5204ZM36.7005 65.0386C41.8738 68.2327 47.0889 69.015 51.3862 67.2423C51.9729 67.0003 52.539 66.7107 53.0798 66.376C61.4439 61.2271 62.0595 46.8766 54.4722 33.683C51.286 28.1346 46.9838 23.5177 42.3781 20.6782C37.2142 17.491 31.9948 16.714 27.7002 18.4855C27.1136 18.7276 26.5475 19.0171 26.0067 19.3519C17.6426 24.5008 17.027 38.8512 24.6143 52.0449C27.794 57.5852 32.0936 62.1961 36.7005 65.0386ZM84.731 53.3198C85.3506 53.1759 85.9562 52.9821 86.5428 52.7402C90.8429 50.9664 93.9871 46.7359 95.4038 40.8234C96.6641 35.5607 96.4514 29.2639 94.8087 23.0824C90.8899 8.38267 80.3358 -1.36025 70.7716 0.879158C70.152 1.02309 69.5464 1.21684 68.9597 1.45881C64.6677 3.23642 61.514 7.46726 60.099 13.3683C58.8347 18.6292 59.0389 24.9366 60.6964 31.1227C64.6151 45.8224 75.1693 55.5653 84.731 53.3198ZM41.1555 106.008L41.1879 105.977C43.8886 103.153 45.2492 99.2017 45.121 94.5474C44.9252 87.4906 41.2333 79.4672 35.2349 73.0554C26.9319 64.1825 16.2405 60.3276 8.63431 63.4651C7.02255 64.127 5.56233 65.1167 4.32977 66.3828L4.2973 66.414C1.59989 69.2218 0.244378 73.1856 0.37254 77.8398C0.568297 84.8966 4.26029 92.92 10.2586 99.3318C18.5617 108.205 29.2531 112.06 36.8592 108.922C38.4677 108.26 39.925 107.272 41.1555 106.008Z" fill="#F5F5F5"/>
</svg>
