<svg width="110" height="111" viewBox="0 0 110 111" fill="none" xmlns="http://www.w3.org/2000/svg">
<path d="M83.6674 6.40038C80.7234 4.59078 77.6811 3.99216 74.8698 4.67246L74.8327 4.68246C73.5619 5.00351 72.3837 5.57305 71.3595 6.36151L71.2467 6.44811C66.5068 10.2135 65.0555 18.4706 67.638 26.994C69.5213 33.2309 73.3028 38.5907 77.7545 41.3317C80.6982 43.1446 83.7441 43.7405 86.5642 43.0534L86.5945 43.0455C87.8652 42.7241 89.0432 42.1546 90.0677 41.3665C94.9145 37.6455 96.4169 29.3492 93.8132 20.7033C91.9114 14.4897 88.1224 9.1419 83.6674 6.40038ZM86.3719 49.6373C82.1961 49.9304 78.2479 50.2062 74.1478 48.4049C62.8141 43.4064 55.9718 40.3903 48.5041 46.1234C41.0364 51.8564 42.1754 59.2511 44.0656 71.4995C44.746 75.9324 43.4558 79.6813 42.0909 83.6541C40.5246 88.2074 38.9063 92.9118 40.7764 98.2887C41.4104 100.258 42.397 102.119 43.6828 103.771C49.0406 110.75 58.3349 112.64 64.3979 107.985C67.5263 105.583 69.9391 101.833 72.4921 97.8649C74.9466 94.049 77.4844 90.1043 80.5124 87.7797C83.5403 85.4551 87.9979 84.0293 92.306 82.6534C96.7864 81.21 101.016 79.8601 104.154 77.4516C110.208 72.8037 110.775 63.3435 105.417 56.3645C104.146 54.6989 102.597 53.2696 100.854 52.154C96.1395 48.9544 91.1735 49.3019 86.3719 49.6373ZM24.5831 53.6425C28.9055 54.9307 32.792 54.4833 35.5274 52.3833C35.9008 52.0966 36.2503 51.7798 36.573 51.4355C41.5688 46.1315 39.2368 35.7342 31.2531 27.7505C27.8989 24.3921 23.9254 21.9166 20.078 20.7728C15.7635 19.4878 11.875 19.9398 9.14138 22.0385C8.76797 22.3252 8.41848 22.642 8.09577 22.9862C3.1 28.2903 5.43199 38.6876 13.4157 46.6713C16.7636 50.0251 20.7341 52.4968 24.5831 53.6425ZM56.72 35.9683C57.136 35.7455 57.5323 35.4897 57.9057 35.203C60.6429 33.1017 62.0774 29.4641 61.9496 24.9556C61.8354 20.9427 60.4664 16.4738 58.0954 12.3638C52.4482 2.59244 43.0063 -2.34648 36.5887 1.10554C36.1728 1.32835 35.7765 1.58414 35.403 1.87081C32.6724 3.97334 31.2311 7.61302 31.3579 12.113C31.4689 16.1253 32.8339 20.6035 35.2164 24.7139C40.8635 34.4853 50.3054 39.4242 56.72 35.9683ZM35.6902 82.1256L35.7075 82.0969C37.0962 79.5528 37.3072 76.4597 36.316 73.1508C34.8123 68.1344 30.6176 63.1011 25.0824 59.6677C17.421 54.917 9.01844 54.2218 4.17688 57.9387C3.15035 58.7242 2.29573 59.7152 1.65756 60.8602L1.64034 60.8888C0.250895 63.4211 0.045921 66.522 1.03705 69.8309C2.54081 74.8473 6.73551 79.8806 12.2707 83.314C19.9321 88.0647 28.3347 88.7599 33.1762 85.043C34.2004 84.2581 35.0532 83.2685 35.6902 82.1256Z" fill="#F5F5F5"/>
</svg>
