<svg width="56" height="59" viewBox="0 0 56 59" fill="none" xmlns="http://www.w3.org/2000/svg">
<path d="M55.5371 31.84C55.673 30.0637 55.2304 28.5276 54.2559 27.399L54.2425 27.3843C53.7958 26.8773 53.257 26.4713 52.6541 26.1875L52.5878 26.1562C49.7441 24.8704 45.6161 26.151 42.3166 29.344C39.9008 31.6775 38.3345 34.6746 38.1269 37.3618C37.9895 39.1388 38.4341 40.6759 39.4138 41.807L39.4246 41.819C39.8714 42.3259 40.4102 42.7318 41.013 43.0158C43.8615 44.3612 48.0196 43.0947 51.3702 39.8631C53.771 37.5266 55.33 34.5289 55.5371 31.84ZM36.3497 43.2706C35.2311 41.425 34.1741 39.6797 34.0337 37.3752C33.6543 31.0004 33.4246 27.1522 29.0358 25.0794C24.6471 23.0066 21.5249 25.2716 16.3544 29.0251C14.4822 30.3819 12.4591 30.6739 10.3159 30.9844C7.85895 31.3394 5.32049 31.7061 3.29584 33.8309C2.54238 34.5857 1.92158 35.4767 1.46705 36.4557C-0.470123 40.5572 0.854015 45.2642 4.41722 46.9471C6.25579 47.8155 8.54384 48.0379 10.9652 48.2732C13.2934 48.4992 15.7002 48.7332 17.4797 49.5737C19.2593 50.4141 20.9636 52.1219 22.6099 53.773C24.3277 55.4872 25.9436 57.1085 27.7874 57.9794C31.3454 59.6598 35.8166 57.6901 37.7538 53.5885C38.218 52.6133 38.5083 51.5662 38.6089 50.5039C38.9649 47.5882 37.6352 45.3931 36.3497 43.2706ZM19.9503 15.8834C20.3784 18.1689 21.4995 19.8455 23.1071 20.6047C23.3266 20.7084 23.5542 20.794 23.7881 20.8608C27.3975 21.9013 31.6152 18.3815 33.3942 12.8392C34.1435 10.5097 34.3421 8.10437 33.9597 6.07068C33.5321 3.78955 32.4083 2.11317 30.8018 1.35439C30.5823 1.25074 30.3547 1.16516 30.1208 1.09833C26.5114 0.057791 22.2937 3.57758 20.5147 9.11991C19.7659 11.4455 19.5684 13.8486 19.9503 15.8834ZM35.6285 26.4531C35.8287 26.5913 36.0394 26.7127 36.2589 26.8164C37.8675 27.5761 39.8735 27.3766 41.9106 26.2554C43.7236 25.2572 45.45 23.5762 46.7757 21.5204C49.9251 16.6281 49.9643 11.1347 46.8689 9.00579C46.6687 8.86758 46.458 8.74615 46.2386 8.64249C44.631 7.88599 42.6224 8.08296 40.589 9.2017C38.7754 10.1982 37.0438 11.8796 35.7206 13.9408C32.5713 18.8331 32.5321 24.3264 35.6285 26.4531ZM9.50816 27.6894L9.52535 27.6905C11.0192 27.7276 12.4872 27.0953 13.7707 25.861C15.7164 23.9892 17.0356 20.8796 17.3053 17.5324C17.6779 12.8998 16.0163 8.88327 13.1709 7.53938C12.5688 7.25383 11.9129 7.09555 11.2375 7.07279L11.2204 7.07164C9.73178 7.0314 8.26165 7.66826 6.9781 8.90257C5.03238 10.7744 3.71318 13.884 3.4435 17.2312C3.07094 21.8638 4.73256 25.8803 7.57795 27.2242C8.1792 27.5089 8.83394 27.6666 9.50816 27.6894Z" fill="#F5F5F5"/>
</svg>
