<svg width="107" height="107" viewBox="0 0 107 107" fill="none" xmlns="http://www.w3.org/2000/svg">
<path d="M105.943 41.6276C105.111 38.2736 103.361 35.7146 100.878 34.2298L100.845 34.2109C99.7133 33.5494 98.4737 33.1301 97.1905 32.9748L97.0494 32.9575C91.0293 32.3221 84.2076 37.1955 80.0769 45.0857C77.0497 50.8548 75.9913 57.3283 77.2463 62.4033C78.0758 65.7595 79.8311 68.3191 82.3244 69.8052L82.3515 69.8208C83.4832 70.482 84.7228 70.9012 86.0059 71.0569C92.0711 71.799 98.9567 66.9334 103.158 58.941C106.156 53.1756 107.2 46.7053 105.943 41.6276ZM77.5734 74.3672C74.389 71.6501 71.3792 69.08 69.7166 64.9217C65.1342 53.4135 62.3666 46.4669 53.0217 45.3236C43.6768 44.1802 39.3073 50.2536 32.0724 60.316C29.4513 63.9551 25.9037 65.7254 22.146 67.6031C17.8378 69.7537 13.3866 71.9755 10.9526 77.1219C10.025 78.971 9.42461 80.99 9.18401 83.0697C8.1155 91.803 13.4217 99.6642 21.0087 100.593C24.9236 101.071 29.2726 100.087 33.875 99.0451C38.3001 98.043 42.8748 97.0075 46.6639 97.4711C50.4531 97.9347 54.6322 100.041 58.6697 102.079C62.8775 104.189 66.8411 106.19 70.767 106.67C78.343 107.597 85.3769 101.246 86.4454 92.5126C86.706 90.4338 86.6026 88.3287 86.1408 86.3112C85.02 80.725 81.2338 77.4928 77.5734 74.3672ZM30.6877 33.9243C32.8685 37.8723 35.9546 40.2767 39.3776 40.6954C39.8449 40.7526 40.3162 40.7715 40.7877 40.7521C48.0685 40.4692 53.6911 31.4178 53.5905 20.1276C53.5511 15.3813 52.4513 10.8307 50.5082 7.3186C48.3308 3.37838 45.2401 0.975921 41.8193 0.557392C41.352 0.500236 40.8807 0.481307 40.4092 0.500758C33.1284 0.783616 27.5058 9.83505 27.6064 21.1253C27.6444 25.864 28.7448 30.4097 30.6877 33.9243ZM65.9992 43.8367C66.4521 43.9692 66.9141 44.0645 67.3814 44.1217C70.8066 44.5407 74.3791 42.951 77.4474 39.6452C80.1781 36.7025 82.3331 32.5551 83.5219 27.9615C86.3409 17.0334 83.0663 6.89343 76.069 4.85874C75.6161 4.7262 75.1542 4.63094 74.6869 4.57375C71.2655 4.16008 67.6867 5.74653 64.6237 9.0456C61.8911 11.9857 59.7266 16.1369 58.5458 20.7388C55.7268 31.6669 59.0014 41.8068 65.9992 43.8367ZM18.651 62.0272L18.6834 62.0188C21.457 61.1771 23.7751 59.1183 25.3868 56.0633C27.8294 51.4308 28.3643 44.9007 26.8216 38.5724C24.6853 29.8144 19.1783 23.4301 13.1196 22.6889C11.8369 22.5299 10.5327 22.638 9.2751 23.0075L9.24274 23.0159C6.47697 23.8487 4.1577 25.9172 2.546 28.9722C0.103317 33.6046 -0.431492 40.1348 1.11117 46.4631C3.24749 55.2211 8.7545 61.6053 14.8131 62.3466C16.0938 62.5044 17.3956 62.3961 18.651 62.0272Z" fill="#F5F5F5"/>
</svg>
